<svg version="1.1" id="Layer_1" xmlns="http://www.w3.org/2000/svg" xmlns:xlink="http://www.w3.org/1999/xlink" x="0px" y="0px"
	 width="100%" viewBox="0 0 1400 1400" enable-background="new 0 0 1400 1400" xml:space="preserve">
<path fill="#FFFFFF" opacity="1.000000" stroke="none" 
	d="
M1.000000,373.000000 
	C1.000000,248.666687 1.000000,124.833374 1.000000,1.000050 
	C467.666534,1.000033 934.333069,1.000033 1400.999756,1.000017 
	C1400.999756,467.666473 1400.999756,934.332947 1400.999878,1400.999512 
	C934.333618,1400.999756 467.667206,1400.999756 1.000409,1400.999878 
	C1.000000,1058.500000 1.000000,716.000000 1.000000,373.000000 
M638.070618,31.011696 
	C437.734497,31.011696 237.398346,31.011696 37.000015,31.011696 
	C37.000015,32.729317 37.000011,33.728184 37.000011,34.727051 
	C36.999996,239.821045 36.999699,444.915039 37.006805,650.009033 
	C37.006851,651.337708 37.109844,652.666382 37.023010,654.923340 
	C37.070274,689.617188 37.117538,724.311035 37.011768,759.933289 
	C37.011768,963.601135 37.011768,1167.269043 37.011768,1371.000000 
	C38.728283,1371.000000 39.727020,1371.000000 40.725761,1371.000000 
	C247.151855,1371.000000 453.577942,1371.000366 660.004028,1370.993408 
	C661.332764,1370.993408 662.661560,1370.891479 664.919373,1370.977295 
	C689.282471,1370.930420 713.645569,1370.883545 738.937378,1370.988281 
	C947.603333,1370.988281 1156.269287,1370.988281 1365.000000,1370.988281 
	C1365.000000,1369.273560 1365.000000,1368.275024 1365.000000,1367.276489 
	C1365.000000,1165.515747 1365.000244,963.754944 1364.993164,761.994141 
	C1364.993164,760.665405 1364.890869,759.336731 1364.977173,757.079163 
	C1364.930298,723.383423 1364.883301,689.687622 1364.988281,655.063232 
	C1364.988281,447.177246 1364.988281,239.291245 1364.988281,31.000000 
	C1362.832275,31.000000 1361.045166,31.000000 1359.257935,31.000000 
	C1126.334473,31.000000 893.411133,30.999622 660.487732,31.006855 
	C658.659241,31.006912 656.830811,31.110518 654.079468,31.022942 
	C649.051697,31.070400 644.023987,31.117859 638.070618,31.011696 
z"/>
<path fill="#1757E6" opacity="1.000000" stroke="none" 
	d="
M37.164787,759.004883 
	C37.117538,724.311035 37.070274,689.617188 37.510670,654.424316 
	C38.323742,653.429810 38.886082,652.958130 38.938808,652.435120 
	C39.663975,645.241333 40.124424,638.015869 41.031639,630.846497 
	C42.921803,615.909302 44.067772,600.788391 47.276161,586.127380 
	C53.014908,559.903625 59.127087,533.689453 66.760963,507.969299 
	C78.719475,467.678436 94.963928,428.992737 115.458069,392.243286 
	C125.392426,374.429321 135.815643,356.846283 146.890366,339.723206 
	C155.751099,326.023315 165.418884,312.764679 175.647675,300.049683 
	C190.174957,281.991516 204.720215,263.815918 220.781265,247.159500 
	C237.866409,229.441086 256.278473,212.912704 274.958099,196.849655 
	C289.822998,184.067047 305.628937,172.298691 321.607880,160.908936 
	C351.999908,139.245575 384.120331,120.375473 418.188660,105.073578 
	C437.354034,96.465385 456.827271,88.480827 476.450226,80.968658 
	C501.722687,71.293709 527.772949,64.008118 554.179016,58.111938 
	C566.270630,55.412014 578.452209,53.015312 590.689026,51.092350 
	C603.950134,49.008438 617.294739,47.351334 630.654358,46.026669 
	C647.026306,44.403320 663.432556,42.653820 679.859070,42.183239 
	C696.934814,41.694069 714.063904,42.386951 731.148193,43.087177 
	C744.799988,43.646706 758.467896,44.565407 772.041199,46.098949 
	C788.611328,47.971096 805.270813,49.786133 821.566467,53.184883 
	C846.730591,58.433292 871.848572,64.197800 896.561646,71.234276 
	C923.045471,78.774963 948.931091,88.393372 973.759277,100.439491 
	C994.327576,110.418785 1015.234009,119.974884 1034.760864,131.756790 
	C1058.352051,145.991058 1081.255859,161.560181 1103.321045,178.070007 
	C1123.024902,192.813187 1141.481934,209.285889 1159.902832,225.655121 
	C1169.804077,234.453629 1178.608887,244.512650 1187.659424,254.234619 
	C1196.655273,263.897797 1206.020996,273.330231 1214.015137,283.788269 
	C1229.691650,304.296539 1245.249268,324.969391 1259.488892,346.479279 
	C1271.359985,364.411224 1281.972900,383.276520 1291.862671,402.390900 
	C1301.531250,421.077972 1310.624146,440.207306 1318.075439,459.860687 
	C1327.411499,484.484711 1335.325928,509.687805 1342.908081,534.925171 
	C1350.139648,558.995605 1355.026978,583.662476 1358.034790,608.654480 
	C1359.738525,622.810303 1361.306763,636.982422 1363.055420,651.132507 
	C1363.261475,652.800171 1364.224365,654.374329 1364.836426,655.991882 
	C1364.883301,689.687622 1364.930298,723.383423 1364.557129,757.730530 
	C1363.762451,759.085999 1363.127808,759.763306 1363.052124,760.498230 
	C1361.991821,770.790955 1361.257080,781.123352 1359.944580,791.382324 
	C1358.160034,805.330200 1356.931885,819.455811 1353.712524,833.091370 
	C1347.209473,860.636169 1340.598389,888.244385 1332.007080,915.180664 
	C1324.402100,939.024109 1315.012451,962.426758 1304.684814,985.242859 
	C1289.641357,1018.477356 1271.556396,1050.151611 1250.959106,1080.346313 
	C1232.250732,1107.771851 1211.804565,1133.842041 1189.176636,1158.088135 
	C1175.806885,1172.414185 1161.703979,1186.148315 1147.059326,1199.168335 
	C1130.756348,1213.662964 1113.715820,1227.365723 1096.542969,1240.835205 
	C1070.773926,1261.047119 1042.988525,1278.296387 1013.949829,1293.322998 
	C993.353333,1303.980835 972.212219,1313.669067 950.919434,1322.877197 
	C924.584229,1334.266235 897.234131,1342.882935 869.437195,1350.021484 
	C841.426514,1357.214966 813.185059,1363.205444 784.355164,1366.031494 
	C770.129456,1367.426025 755.889038,1368.669312 741.659058,1370.021240 
	C740.427551,1370.138428 739.224792,1370.557739 738.008667,1370.836670 
	C713.645569,1370.883545 689.282471,1370.930420 664.200317,1370.567139 
	C650.685669,1369.108643 637.845947,1368.432129 625.105286,1366.920410 
	C608.379639,1364.935913 591.487549,1363.379028 575.106445,1359.688110 
	C548.299988,1353.647949 521.515381,1347.082397 495.346039,1338.771851 
	C472.114624,1331.394409 449.321167,1322.254272 427.089905,1312.218628 
	C404.619415,1302.075073 382.545349,1290.782104 361.282745,1278.312866 
	C341.331543,1266.612793 322.063385,1253.516968 303.604095,1239.567139 
	C284.095215,1224.824097 265.225525,1209.070679 247.294815,1192.444824 
	C224.476898,1171.287476 202.656158,1148.998535 183.732803,1124.154663 
	C170.952194,1107.375366 157.997238,1090.673828 146.249649,1073.179199 
	C135.990692,1057.901489 127.082840,1041.692871 117.984917,1025.664673 
	C103.847839,1000.758667 91.953804,974.775391 81.523338,948.101624 
	C71.548172,922.591980 63.233185,896.552612 56.591690,870.004272 
	C52.956593,855.473511 49.949978,840.772949 47.086098,826.066040 
	C45.026291,815.488159 43.388931,804.807678 42.079506,794.109741 
	C40.722363,783.021790 40.014294,771.854980 38.910374,760.733765 
	C38.848057,760.105896 37.770054,759.578857 37.164787,759.004883 
M151.066650,445.689087 
	C150.487595,447.206390 150.015381,448.775055 149.313660,450.233307 
	C136.133362,477.622986 125.590569,506.041260 117.129837,535.186646 
	C109.034164,563.074524 102.222984,591.296814 98.997177,620.246704 
	C96.943993,638.672974 93.938583,657.073120 93.275406,675.553711 
	C92.465874,698.113159 93.130402,720.769104 94.168495,743.336792 
	C94.944611,760.209351 96.709541,777.097717 99.150032,793.816162 
	C101.881187,812.525757 105.045097,831.253723 109.538353,849.602112 
	C114.291428,869.011414 120.327110,888.154053 126.745888,907.093445 
	C132.124664,922.964172 138.400421,938.575623 145.096863,953.945496 
	C157.719376,982.917175 172.851929,1010.603394 190.060577,1037.112427 
	C205.416443,1060.767578 221.975967,1083.566895 241.013550,1104.420410 
	C253.804901,1118.432007 266.960175,1132.122681 280.247253,1145.667847 
	C298.503357,1164.278564 318.752411,1180.584473 339.616425,1196.168335 
	C362.956696,1213.601929 387.425476,1229.270508 413.112335,1242.962524 
	C448.047852,1261.584717 484.181915,1277.560303 522.286621,1288.500122 
	C544.019714,1294.739624 566.056824,1300.044678 588.163940,1304.811035 
	C602.038269,1307.802612 616.267944,1309.248535 630.390381,1310.957153 
	C643.921631,1312.594116 657.508667,1314.640991 671.091614,1314.804199 
	C701.909668,1315.174316 732.792419,1316.218262 763.495483,1312.020020 
	C778.905945,1309.912720 794.574646,1309.041138 809.708740,1305.711548 
	C835.917297,1299.945312 862.116394,1293.717651 887.723572,1285.764771 
	C909.288208,1279.067383 930.200256,1270.104248 951.050293,1261.312012 
	C977.459229,1250.175659 1002.487854,1236.263794 1026.624146,1220.823608 
	C1051.895996,1204.656982 1076.288086,1187.244751 1098.457642,1166.958130 
	C1112.454590,1154.150146 1126.138672,1140.989868 1139.705566,1127.724487 
	C1158.350220,1109.494385 1174.544067,1089.147461 1190.190552,1068.342285 
	C1206.322876,1046.891357 1220.982178,1024.455811 1233.490356,1000.745239 
	C1243.625366,981.532776 1253.083130,961.920227 1261.910767,942.071350 
	C1273.307617,916.445618 1282.423828,889.929688 1289.037720,862.643677 
	C1293.026001,846.189087 1296.711792,829.643982 1299.895386,813.017334 
	C1302.169312,801.140808 1303.610718,789.087769 1305.008179,777.065125 
	C1306.581909,763.526184 1308.668945,749.942566 1308.801270,736.361511 
	C1309.100098,705.711243 1310.312744,674.995544 1306.049561,644.452698 
	C1304.418091,632.763855 1303.851440,620.906738 1301.817383,609.298401 
	C1299.034790,593.417969 1295.622192,577.629639 1291.937500,561.929016 
	C1282.407593,521.321472 1268.165039,482.335083 1250.239868,444.718628 
	C1235.447144,413.675812 1217.892334,384.243530 1198.115479,356.072784 
	C1181.849976,332.903412 1163.961304,311.096344 1144.721069,290.421021 
	C1134.321533,279.245972 1123.220337,268.657501 1111.813232,258.503662 
	C1097.703613,245.944077 1083.157104,233.849854 1068.424561,222.021439 
	C1044.280029,202.636490 1018.084167,186.235611 990.893738,171.571609 
	C953.884094,151.612045 915.264526,135.386246 874.884644,123.338135 
	C841.488892,113.373863 807.487549,106.473747 772.982056,102.147820 
	C756.011597,100.020241 738.877625,98.602722 721.785767,98.192345 
	C701.704895,97.710213 681.588501,98.622833 661.489746,99.040794 
	C656.883667,99.136574 652.256042,99.451157 647.691589,100.062965 
	C631.152527,102.279877 614.488708,103.922989 598.146362,107.165695 
	C574.680054,111.821983 551.272766,117.014641 528.172363,123.215446 
	C500.282806,130.701797 473.350098,141.197342 447.216187,153.465881 
	C411.037079,170.450134 376.055084,189.691162 344.273743,214.082413 
	C324.105042,229.561279 304.034607,245.345978 285.396210,262.589111 
	C268.165253,278.530121 252.372314,296.136475 236.933868,313.869415 
	C224.262192,328.424347 212.424744,343.808472 201.314575,359.597046 
	C182.295959,386.624146 165.853317,415.253387 151.066650,445.689087 
z"/>
<path fill="#000000" opacity="1.000000" stroke="none" 
	d="
M1364.912354,655.527588 
	C1364.224365,654.374329 1363.261475,652.800171 1363.055420,651.132507 
	C1361.306763,636.982422 1359.738525,622.810303 1358.034790,608.654480 
	C1355.026978,583.662476 1350.139648,558.995605 1342.908081,534.925171 
	C1335.325928,509.687805 1327.411499,484.484711 1318.075439,459.860687 
	C1310.624146,440.207306 1301.531250,421.077972 1291.862671,402.390900 
	C1281.972900,383.276520 1271.359985,364.411224 1259.488892,346.479279 
	C1245.249268,324.969391 1229.691650,304.296539 1214.015137,283.788269 
	C1206.020996,273.330231 1196.655273,263.897797 1187.659424,254.234619 
	C1178.608887,244.512650 1169.804077,234.453629 1159.902832,225.655121 
	C1141.481934,209.285889 1123.024902,192.813187 1103.321045,178.070007 
	C1081.255859,161.560181 1058.352051,145.991058 1034.760864,131.756790 
	C1015.234009,119.974884 994.327576,110.418785 973.759277,100.439491 
	C948.931091,88.393372 923.045471,78.774963 896.561646,71.234276 
	C871.848572,64.197800 846.730591,58.433292 821.566467,53.184883 
	C805.270813,49.786133 788.611328,47.971096 772.041199,46.098949 
	C758.467896,44.565407 744.799988,43.646706 731.148193,43.087177 
	C714.063904,42.386951 696.934814,41.694069 679.859070,42.183239 
	C663.432556,42.653820 647.026306,44.403320 630.654358,46.026669 
	C617.294739,47.351334 603.950134,49.008438 590.689026,51.092350 
	C578.452209,53.015312 566.270630,55.412014 554.179016,58.111938 
	C527.772949,64.008118 501.722687,71.293709 476.450226,80.968658 
	C456.827271,88.480827 437.354034,96.465385 418.188660,105.073578 
	C384.120331,120.375473 351.999908,139.245575 321.607880,160.908936 
	C305.628937,172.298691 289.822998,184.067047 274.958099,196.849655 
	C256.278473,212.912704 237.866409,229.441086 220.781265,247.159500 
	C204.720215,263.815918 190.174957,281.991516 175.647675,300.049683 
	C165.418884,312.764679 155.751099,326.023315 146.890366,339.723206 
	C135.815643,356.846283 125.392426,374.429321 115.458069,392.243286 
	C94.963928,428.992737 78.719475,467.678436 66.760963,507.969299 
	C59.127087,533.689453 53.014908,559.903625 47.276161,586.127380 
	C44.067772,600.788391 42.921803,615.909302 41.031639,630.846497 
	C40.124424,638.015869 39.663975,645.241333 38.938808,652.435120 
	C38.886082,652.958130 38.323742,653.429810 37.581547,653.960205 
	C37.109844,652.666382 37.006851,651.337708 37.006805,650.009033 
	C36.999699,444.915039 36.999996,239.821045 37.000011,34.727051 
	C37.000011,33.728184 37.000015,32.729317 37.000015,31.011696 
	C237.398346,31.011696 437.734497,31.011696 638.570923,31.504517 
	C644.381653,31.720150 649.691956,31.442959 655.002319,31.165771 
	C656.830811,31.110518 658.659241,31.006912 660.487732,31.006855 
	C893.411133,30.999622 1126.334473,31.000000 1359.257935,31.000000 
	C1361.045166,31.000000 1362.832275,31.000000 1364.988281,31.000000 
	C1364.988281,239.291245 1364.988281,447.177246 1364.912354,655.527588 
z"/>
<path fill="#000000" opacity="1.000000" stroke="none" 
	d="
M738.473022,1370.912476 
	C739.224792,1370.557739 740.427551,1370.138428 741.659058,1370.021240 
	C755.889038,1368.669312 770.129456,1367.426025 784.355164,1366.031494 
	C813.185059,1363.205444 841.426514,1357.214966 869.437195,1350.021484 
	C897.234131,1342.882935 924.584229,1334.266235 950.919434,1322.877197 
	C972.212219,1313.669067 993.353333,1303.980835 1013.949829,1293.322998 
	C1042.988525,1278.296387 1070.773926,1261.047119 1096.542969,1240.835205 
	C1113.715820,1227.365723 1130.756348,1213.662964 1147.059326,1199.168335 
	C1161.703979,1186.148315 1175.806885,1172.414185 1189.176636,1158.088135 
	C1211.804565,1133.842041 1232.250732,1107.771851 1250.959106,1080.346313 
	C1271.556396,1050.151611 1289.641357,1018.477356 1304.684814,985.242859 
	C1315.012451,962.426758 1324.402100,939.024109 1332.007080,915.180664 
	C1340.598389,888.244385 1347.209473,860.636169 1353.712524,833.091370 
	C1356.931885,819.455811 1358.160034,805.330200 1359.944580,791.382324 
	C1361.257080,781.123352 1361.991821,770.790955 1363.052124,760.498230 
	C1363.127808,759.763306 1363.762451,759.085999 1364.486816,758.194946 
	C1364.890869,759.336731 1364.993164,760.665405 1364.993164,761.994141 
	C1365.000244,963.754944 1365.000000,1165.515747 1365.000000,1367.276489 
	C1365.000000,1368.275024 1365.000000,1369.273560 1365.000000,1370.988281 
	C1156.269287,1370.988281 947.603333,1370.988281 738.473022,1370.912476 
z"/>
<path fill="#000000" opacity="1.000000" stroke="none" 
	d="
M37.088272,759.469116 
	C37.770054,759.578857 38.848057,760.105896 38.910374,760.733765 
	C40.014294,771.854980 40.722363,783.021790 42.079506,794.109741 
	C43.388931,804.807678 45.026291,815.488159 47.086098,826.066040 
	C49.949978,840.772949 52.956593,855.473511 56.591690,870.004272 
	C63.233185,896.552612 71.548172,922.591980 81.523338,948.101624 
	C91.953804,974.775391 103.847839,1000.758667 117.984917,1025.664673 
	C127.082840,1041.692871 135.990692,1057.901489 146.249649,1073.179199 
	C157.997238,1090.673828 170.952194,1107.375366 183.732803,1124.154663 
	C202.656158,1148.998535 224.476898,1171.287476 247.294815,1192.444824 
	C265.225525,1209.070679 284.095215,1224.824097 303.604095,1239.567139 
	C322.063385,1253.516968 341.331543,1266.612793 361.282745,1278.312866 
	C382.545349,1290.782104 404.619415,1302.075073 427.089905,1312.218628 
	C449.321167,1322.254272 472.114624,1331.394409 495.346039,1338.771851 
	C521.515381,1347.082397 548.299988,1353.647949 575.106445,1359.688110 
	C591.487549,1363.379028 608.379639,1364.935913 625.105286,1366.920410 
	C637.845947,1368.432129 650.685669,1369.108643 663.735840,1370.497070 
	C662.661560,1370.891479 661.332764,1370.993408 660.004028,1370.993408 
	C453.577942,1371.000366 247.151855,1371.000000 40.725761,1371.000000 
	C39.727020,1371.000000 38.728283,1371.000000 37.011768,1371.000000 
	C37.011768,1167.269043 37.011768,963.601135 37.088272,759.469116 
z"/>
<path fill="#1757E6" opacity="1.000000" stroke="none" 
	d="
M654.540894,31.094357 
	C649.691956,31.442959 644.381653,31.720150 639.033752,31.581329 
	C644.023987,31.117859 649.051697,31.070400 654.540894,31.094357 
z"/>
<path fill="#000000" opacity="1.000000" stroke="none" 
	d="
M151.266998,445.361450 
	C165.853317,415.253387 182.295959,386.624146 201.314575,359.597046 
	C212.424744,343.808472 224.262192,328.424347 236.933868,313.869415 
	C252.372314,296.136475 268.165253,278.530121 285.396210,262.589111 
	C304.034607,245.345978 324.105042,229.561279 344.273743,214.082413 
	C376.055084,189.691162 411.037079,170.450134 447.216187,153.465881 
	C473.350098,141.197342 500.282806,130.701797 528.172363,123.215446 
	C551.272766,117.014641 574.680054,111.821983 598.146362,107.165695 
	C614.488708,103.922989 631.152527,102.279877 647.691589,100.062965 
	C652.256042,99.451157 656.883667,99.136574 661.489746,99.040794 
	C681.588501,98.622833 701.704895,97.710213 721.785767,98.192345 
	C738.877625,98.602722 756.011597,100.020241 772.982056,102.147820 
	C807.487549,106.473747 841.488892,113.373863 874.884644,123.338135 
	C915.264526,135.386246 953.884094,151.612045 990.893738,171.571609 
	C1018.084167,186.235611 1044.280029,202.636490 1068.424561,222.021439 
	C1083.157104,233.849854 1097.703613,245.944077 1111.813232,258.503662 
	C1123.220337,268.657501 1134.321533,279.245972 1144.721069,290.421021 
	C1163.961304,311.096344 1181.849976,332.903412 1198.115479,356.072784 
	C1217.892334,384.243530 1235.447144,413.675812 1250.239868,444.718628 
	C1268.165039,482.335083 1282.407593,521.321472 1291.937500,561.929016 
	C1295.622192,577.629639 1299.034790,593.417969 1301.817383,609.298401 
	C1303.851440,620.906738 1304.418091,632.763855 1306.049561,644.452698 
	C1310.312744,674.995544 1309.100098,705.711243 1308.801270,736.361511 
	C1308.668945,749.942566 1306.581909,763.526184 1305.008179,777.065125 
	C1303.610718,789.087769 1302.169312,801.140808 1299.895386,813.017334 
	C1296.711792,829.643982 1293.026001,846.189087 1289.037720,862.643677 
	C1282.423828,889.929688 1273.307617,916.445618 1261.910767,942.071350 
	C1253.083130,961.920227 1243.625366,981.532776 1233.490356,1000.745239 
	C1220.982178,1024.455811 1206.322876,1046.891357 1190.190552,1068.342285 
	C1174.544067,1089.147461 1158.350220,1109.494385 1139.705566,1127.724487 
	C1126.138672,1140.989868 1112.454590,1154.150146 1098.457642,1166.958130 
	C1076.288086,1187.244751 1051.895996,1204.656982 1026.624146,1220.823608 
	C1002.487854,1236.263794 977.459229,1250.175659 951.050293,1261.312012 
	C930.200256,1270.104248 909.288208,1279.067383 887.723572,1285.764771 
	C862.116394,1293.717651 835.917297,1299.945312 809.708740,1305.711548 
	C794.574646,1309.041138 778.905945,1309.912720 763.495483,1312.020020 
	C732.792419,1316.218262 701.909668,1315.174316 671.091614,1314.804199 
	C657.508667,1314.640991 643.921631,1312.594116 630.390381,1310.957153 
	C616.267944,1309.248535 602.038269,1307.802612 588.163940,1304.811035 
	C566.056824,1300.044678 544.019714,1294.739624 522.286621,1288.500122 
	C484.181915,1277.560303 448.047852,1261.584717 413.112335,1242.962524 
	C387.425476,1229.270508 362.956696,1213.601929 339.616425,1196.168335 
	C318.752411,1180.584473 298.503357,1164.278564 280.247253,1145.667847 
	C266.960175,1132.122681 253.804901,1118.432007 241.013550,1104.420410 
	C221.975967,1083.566895 205.416443,1060.767578 190.060577,1037.112427 
	C172.851929,1010.603394 157.719376,982.917175 145.096863,953.945496 
	C138.400421,938.575623 132.124664,922.964172 126.745888,907.093445 
	C120.327110,888.154053 114.291428,869.011414 109.538353,849.602112 
	C105.045097,831.253723 101.881187,812.525757 99.150032,793.816162 
	C96.709541,777.097717 94.944611,760.209351 94.168495,743.336792 
	C93.130402,720.769104 92.465874,698.113159 93.275406,675.553711 
	C93.938583,657.073120 96.943993,638.672974 98.997177,620.246704 
	C102.222984,591.296814 109.034164,563.074524 117.129837,535.186646 
	C125.590569,506.041260 136.133362,477.622986 149.313660,450.233307 
	C150.015381,448.775055 150.487595,447.206390 151.266998,445.361450 
M803.069031,1024.547241 
	C815.364075,1034.069214 829.115356,1040.765503 844.145203,1044.472168 
	C857.419006,1047.745850 870.788086,1051.476440 884.317322,1052.625854 
	C897.036011,1053.706543 910.069702,1052.181396 922.874817,1050.902222 
	C945.879456,1048.604004 966.971191,1040.902222 985.763306,1027.106079 
	C996.206482,1019.439331 1005.963257,1011.054382 1013.691284,1000.672791 
	C1020.312012,991.778687 1026.544678,982.544250 1032.289429,973.060730 
	C1042.849365,955.627991 1054.361816,938.425171 1056.572266,917.453186 
	C1057.281494,910.725403 1057.529297,903.026062 1054.955444,897.085266 
	C1050.794556,887.481445 1039.807983,885.099487 1031.886963,892.014771 
	C1020.386597,902.054810 1009.419006,912.898499 999.465820,924.467651 
	C987.375732,938.520630 973.424133,949.658020 956.085388,955.848206 
	C945.565125,959.604126 934.468689,961.946777 923.472290,964.121155 
	C907.553040,967.268921 893.154114,963.449585 881.014893,952.465698 
	C870.646362,943.084045 865.436279,930.634460 862.198425,917.506287 
	C860.449585,910.415649 861.110291,902.765381 859.860901,895.509277 
	C857.675903,882.819092 860.741211,871.177856 867.706360,861.067505 
	C875.963562,849.081604 885.576599,838.020630 894.743774,826.673218 
	C905.055298,813.909241 915.183716,800.972107 926.028442,788.671631 
	C935.466370,777.966858 946.085205,768.308777 955.640564,757.700378 
	C965.095032,747.203857 974.005920,736.205688 982.909912,725.228516 
	C992.712463,713.143677 1002.488037,701.020935 1011.802490,688.561096 
	C1019.712036,677.980469 1028.466309,667.621155 1034.086304,655.846313 
	C1040.617798,642.161621 1045.002563,627.257935 1048.721436,612.481323 
	C1052.268555,598.386963 1054.087891,583.929626 1048.117676,569.527588 
	C1041.790161,554.263733 1031.349609,543.361572 1016.025024,537.719727 
	C1008.456665,534.933350 1000.302002,533.111877 992.272217,532.367310 
	C982.500916,531.461182 972.347534,530.791809 962.777405,532.442810 
	C945.252686,535.466003 928.526123,541.421204 912.924438,550.430725 
	C897.527832,559.321899 882.576172,568.987244 870.246094,581.665527 
	C858.846191,593.387451 848.748108,606.481995 838.928345,619.609009 
	C824.457336,638.953552 813.908569,660.636536 804.150208,682.625366 
	C790.922241,712.432373 779.457153,742.935364 771.327759,774.552063 
	C767.882507,787.951355 765.524109,801.645447 763.062012,815.276123 
	C761.638489,823.156738 761.629333,831.323059 759.854858,839.103333 
	C756.837524,852.332581 752.150269,865.366150 741.134460,873.922424 
	C733.536072,879.824402 724.447632,884.191345 715.456177,887.843750 
	C689.740356,898.289734 662.221436,899.497437 635.039551,901.857239 
	C621.553894,903.027893 608.042969,901.309326 594.894104,897.957581 
	C553.658691,887.446350 526.109314,861.624573 510.987061,822.179260 
	C503.949677,803.822815 502.606995,784.368408 502.270905,765.121521 
	C501.831177,739.938232 502.515442,714.664124 504.272339,689.537842 
	C505.510529,671.829468 508.334259,654.076904 512.224365,636.742188 
	C519.639038,603.701538 532.787781,572.860474 551.228516,544.333984 
	C557.392090,534.799500 563.344055,533.514832 573.255554,535.412415 
	C591.943970,538.990234 610.343262,544.065552 628.887573,548.412415 
	C648.096619,552.915100 667.492310,555.911865 687.302307,556.047424 
	C709.114868,556.196777 730.857056,556.077087 752.274719,551.022949 
	C777.428162,545.087097 799.750061,533.863831 817.388855,514.816345 
	C825.006042,506.590851 831.533203,497.182648 837.518982,487.660095 
	C846.632263,473.162140 850.464050,456.821838 849.825928,439.819000 
	C849.384399,428.057404 848.085938,416.204376 845.788452,404.667450 
	C842.953247,390.430420 838.189209,376.217438 826.185791,367.162659 
	C816.514954,359.867432 805.561035,353.621246 794.269043,349.257935 
	C768.084106,339.139893 740.502258,334.180511 712.575562,332.183929 
	C692.764099,330.767517 672.784790,331.695496 653.223938,335.242340 
	C634.810120,338.581146 616.917236,343.811310 600.112000,352.790192 
	C580.212463,363.422302 559.502686,372.503143 541.820496,386.955261 
	C534.856873,392.646820 528.081421,398.039154 517.368652,396.419586 
	C509.512268,395.231842 503.258636,392.671997 497.963898,387.376923 
	C489.159912,378.572388 480.579010,369.541046 472.032104,360.484436 
	C466.349884,354.463348 459.336456,350.731598 451.602631,348.343170 
	C444.855469,346.259338 437.764191,345.629486 431.753540,349.971649 
	C424.517212,355.199310 421.172180,363.170380 421.157684,371.796051 
	C421.134674,385.495789 426.172455,398.087402 432.599762,409.891327 
	C439.475067,422.517975 446.816193,434.821716 450.522003,448.910217 
	C452.987701,458.284210 453.730164,467.645050 452.392456,477.247101 
	C450.773895,488.864807 444.354980,498.172516 437.983490,507.441162 
	C426.572723,524.040466 414.925171,540.691284 408.342224,559.768127 
	C399.375244,585.753601 391.553589,612.166565 384.156830,638.651978 
	C377.484406,662.543884 372.332886,686.844910 369.991577,711.617798 
	C368.490143,727.503906 366.873657,743.401062 366.155640,759.331482 
	C365.671967,770.062927 366.450592,780.873047 367.053711,791.626160 
	C367.828339,805.437744 368.670563,819.260193 370.066895,833.018799 
	C372.060242,852.659729 378.038635,871.350098 386.175812,889.179321 
	C398.259949,915.656616 413.597229,939.912720 436.303192,958.972778 
	C449.724487,970.238953 464.201447,979.546326 480.451019,985.929932 
	C498.830811,993.150513 517.875000,998.079468 537.200439,1002.230957 
	C559.956055,1007.119263 582.917114,1009.746277 606.094604,1009.815857 
	C618.560730,1009.853271 631.085205,1008.427979 643.487549,1006.889893 
	C657.091187,1005.202942 670.726624,1003.265930 684.093933,1000.294006 
	C706.659424,995.277100 728.973206,989.205994 750.584656,980.805542 
	C761.796753,976.447205 769.663757,979.368225 774.832947,988.957703 
	C782.057251,1002.359558 791.374634,1013.880798 803.069031,1024.547241 
z"/>
<path fill="#1757E6" opacity="1.000000" stroke="none" 
	d="
M802.814087,1024.293091 
	C791.374634,1013.880798 782.057251,1002.359558 774.832947,988.957703 
	C769.663757,979.368225 761.796753,976.447205 750.584656,980.805542 
	C728.973206,989.205994 706.659424,995.277100 684.093933,1000.294006 
	C670.726624,1003.265930 657.091187,1005.202942 643.487549,1006.889893 
	C631.085205,1008.427979 618.560730,1009.853271 606.094604,1009.815857 
	C582.917114,1009.746277 559.956055,1007.119263 537.200439,1002.230957 
	C517.875000,998.079468 498.830811,993.150513 480.451019,985.929932 
	C464.201447,979.546326 449.724487,970.238953 436.303192,958.972778 
	C413.597229,939.912720 398.259949,915.656616 386.175812,889.179321 
	C378.038635,871.350098 372.060242,852.659729 370.066895,833.018799 
	C368.670563,819.260193 367.828339,805.437744 367.053711,791.626160 
	C366.450592,780.873047 365.671967,770.062927 366.155640,759.331482 
	C366.873657,743.401062 368.490143,727.503906 369.991577,711.617798 
	C372.332886,686.844910 377.484406,662.543884 384.156830,638.651978 
	C391.553589,612.166565 399.375244,585.753601 408.342224,559.768127 
	C414.925171,540.691284 426.572723,524.040466 437.983490,507.441162 
	C444.354980,498.172516 450.773895,488.864807 452.392456,477.247101 
	C453.730164,467.645050 452.987701,458.284210 450.522003,448.910217 
	C446.816193,434.821716 439.475067,422.517975 432.599762,409.891327 
	C426.172455,398.087402 421.134674,385.495789 421.157684,371.796051 
	C421.172180,363.170380 424.517212,355.199310 431.753540,349.971649 
	C437.764191,345.629486 444.855469,346.259338 451.602631,348.343170 
	C459.336456,350.731598 466.349884,354.463348 472.032104,360.484436 
	C480.579010,369.541046 489.159912,378.572388 497.963898,387.376923 
	C503.258636,392.671997 509.512268,395.231842 517.368652,396.419586 
	C528.081421,398.039154 534.856873,392.646820 541.820496,386.955261 
	C559.502686,372.503143 580.212463,363.422302 600.112000,352.790192 
	C616.917236,343.811310 634.810120,338.581146 653.223938,335.242340 
	C672.784790,331.695496 692.764099,330.767517 712.575562,332.183929 
	C740.502258,334.180511 768.084106,339.139893 794.269043,349.257935 
	C805.561035,353.621246 816.514954,359.867432 826.185791,367.162659 
	C838.189209,376.217438 842.953247,390.430420 845.788452,404.667450 
	C848.085938,416.204376 849.384399,428.057404 849.825928,439.819000 
	C850.464050,456.821838 846.632263,473.162140 837.518982,487.660095 
	C831.533203,497.182648 825.006042,506.590851 817.388855,514.816345 
	C799.750061,533.863831 777.428162,545.087097 752.274719,551.022949 
	C730.857056,556.077087 709.114868,556.196777 687.302307,556.047424 
	C667.492310,555.911865 648.096619,552.915100 628.887573,548.412415 
	C610.343262,544.065552 591.943970,538.990234 573.255554,535.412415 
	C563.344055,533.514832 557.392090,534.799500 551.228516,544.333984 
	C532.787781,572.860474 519.639038,603.701538 512.224365,636.742188 
	C508.334259,654.076904 505.510529,671.829468 504.272339,689.537842 
	C502.515442,714.664124 501.831177,739.938232 502.270905,765.121521 
	C502.606995,784.368408 503.949677,803.822815 510.987061,822.179260 
	C526.109314,861.624573 553.658691,887.446350 594.894104,897.957581 
	C608.042969,901.309326 621.553894,903.027893 635.039551,901.857239 
	C662.221436,899.497437 689.740356,898.289734 715.456177,887.843750 
	C724.447632,884.191345 733.536072,879.824402 741.134460,873.922424 
	C752.150269,865.366150 756.837524,852.332581 759.854858,839.103333 
	C761.629333,831.323059 761.638489,823.156738 763.062012,815.276123 
	C765.524109,801.645447 767.882507,787.951355 771.327759,774.552063 
	C779.457153,742.935364 790.922241,712.432373 804.150208,682.625366 
	C813.908569,660.636536 824.457336,638.953552 838.928345,619.609009 
	C848.748108,606.481995 858.846191,593.387451 870.246094,581.665527 
	C882.576172,568.987244 897.527832,559.321899 912.924438,550.430725 
	C928.526123,541.421204 945.252686,535.466003 962.777405,532.442810 
	C972.347534,530.791809 982.500916,531.461182 992.272217,532.367310 
	C1000.302002,533.111877 1008.456665,534.933350 1016.025024,537.719727 
	C1031.349609,543.361572 1041.790161,554.263733 1048.117676,569.527588 
	C1054.087891,583.929626 1052.268555,598.386963 1048.721436,612.481323 
	C1045.002563,627.257935 1040.617798,642.161621 1034.086304,655.846313 
	C1028.466309,667.621155 1019.712036,677.980469 1011.802490,688.561096 
	C1002.488037,701.020935 992.712463,713.143677 982.909912,725.228516 
	C974.005920,736.205688 965.095032,747.203857 955.640564,757.700378 
	C946.085205,768.308777 935.466370,777.966858 926.028442,788.671631 
	C915.183716,800.972107 905.055298,813.909241 894.743774,826.673218 
	C885.576599,838.020630 875.963562,849.081604 867.706360,861.067505 
	C860.741211,871.177856 857.675903,882.819092 859.860901,895.509277 
	C861.110291,902.765381 860.449585,910.415649 862.198425,917.506287 
	C865.436279,930.634460 870.646362,943.084045 881.014893,952.465698 
	C893.154114,963.449585 907.553040,967.268921 923.472290,964.121155 
	C934.468689,961.946777 945.565125,959.604126 956.085388,955.848206 
	C973.424133,949.658020 987.375732,938.520630 999.465820,924.467651 
	C1009.419006,912.898499 1020.386597,902.054810 1031.886963,892.014771 
	C1039.807983,885.099487 1050.794556,887.481445 1054.955444,897.085266 
	C1057.529297,903.026062 1057.281494,910.725403 1056.572266,917.453186 
	C1054.361816,938.425171 1042.849365,955.627991 1032.289429,973.060730 
	C1026.544678,982.544250 1020.312012,991.778687 1013.691284,1000.672791 
	C1005.963257,1011.054382 996.206482,1019.439331 985.763306,1027.106079 
	C966.971191,1040.902222 945.879456,1048.604004 922.874817,1050.902222 
	C910.069702,1052.181396 897.036011,1053.706543 884.317322,1052.625854 
	C870.788086,1051.476440 857.419006,1047.745850 844.145203,1044.472168 
	C829.115356,1040.765503 815.364075,1034.069214 802.814087,1024.293091 
M666.083496,430.425049 
	C648.137817,436.603638 632.283142,446.540405 617.421143,458.080688 
	C615.202881,459.803192 613.163574,463.658356 613.504150,466.196564 
	C613.798096,468.387360 617.371460,471.376526 619.885193,471.824799 
	C633.528442,474.257812 647.266113,476.230072 661.026367,477.909332 
	C668.054077,478.766937 675.259766,478.201782 682.274658,479.121674 
	C695.997742,480.921265 709.536865,480.539551 722.870850,476.889496 
	C730.906738,474.689667 738.296631,471.447754 741.054016,462.322845 
	C744.516846,450.863403 739.336060,437.545807 729.983276,430.974731 
	C717.670044,422.323639 703.738159,424.814636 690.278564,425.564117 
	C682.401184,426.002777 674.638489,428.501953 666.083496,430.425049 
M960.479797,648.044373 
	C966.946594,640.612427 971.115967,632.001587 972.912598,622.374268 
	C974.312744,614.871643 970.895691,609.779968 963.385498,608.325012 
	C960.286682,607.724670 956.291504,607.532471 953.771423,608.994568 
	C947.488159,612.639771 940.955322,616.542725 936.093384,621.795898 
	C927.887817,630.661804 920.562866,640.410095 913.464355,650.219116 
	C899.000061,670.206299 887.712036,691.812073 882.487671,716.153503 
	C881.044189,722.879028 880.414612,729.779236 879.411621,736.599243 
	C880.177734,736.993591 880.943909,737.387878 881.710022,737.782166 
	C891.023621,728.444092 900.663147,719.404663 909.564575,709.688904 
	C919.664856,698.664490 929.242432,687.149109 938.786316,675.630920 
	C946.092285,666.813599 952.992615,657.660217 960.479797,648.044373 
z"/>
<path fill="#000000" opacity="1.000000" stroke="none" 
	d="
M666.453857,430.249634 
	C674.638489,428.501953 682.401184,426.002777 690.278564,425.564117 
	C703.738159,424.814636 717.670044,422.323639 729.983276,430.974731 
	C739.336060,437.545807 744.516846,450.863403 741.054016,462.322845 
	C738.296631,471.447754 730.906738,474.689667 722.870850,476.889496 
	C709.536865,480.539551 695.997742,480.921265 682.274658,479.121674 
	C675.259766,478.201782 668.054077,478.766937 661.026367,477.909332 
	C647.266113,476.230072 633.528442,474.257812 619.885193,471.824799 
	C617.371460,471.376526 613.798096,468.387360 613.504150,466.196564 
	C613.163574,463.658356 615.202881,459.803192 617.421143,458.080688 
	C632.283142,446.540405 648.137817,436.603638 666.453857,430.249634 
z"/>
<path fill="#000000" opacity="1.000000" stroke="none" 
	d="
M960.276611,648.350342 
	C952.992615,657.660217 946.092285,666.813599 938.786316,675.630920 
	C929.242432,687.149109 919.664856,698.664490 909.564575,709.688904 
	C900.663147,719.404663 891.023621,728.444092 881.710022,737.782166 
	C880.943909,737.387878 880.177734,736.993591 879.411621,736.599243 
	C880.414612,729.779236 881.044189,722.879028 882.487671,716.153503 
	C887.712036,691.812073 899.000061,670.206299 913.464355,650.219116 
	C920.562866,640.410095 927.887817,630.661804 936.093384,621.795898 
	C940.955322,616.542725 947.488159,612.639771 953.771423,608.994568 
	C956.291504,607.532471 960.286682,607.724670 963.385498,608.325012 
	C970.895691,609.779968 974.312744,614.871643 972.912598,622.374268 
	C971.115967,632.001587 966.946594,640.612427 960.276611,648.350342 
z"/>
</svg>