<?xml version="1.0" encoding="UTF-8"?>
<!DOCTYPE svg PUBLIC "-//W3C//DTD SVG 1.1//EN" "http://www.w3.org/Graphics/SVG/1.1/DTD/svg11.dtd">
<svg xmlns="http://www.w3.org/2000/svg" version="1.1" width="1400px" height="1400px" style="shape-rendering:geometricPrecision; text-rendering:geometricPrecision; image-rendering:optimizeQuality; fill-rule:evenodd; clip-rule:evenodd" xmlns:xlink="http://www.w3.org/1999/xlink">
<g><path style="opacity:0.685" fill="#1756e6" d="M 637.5,29.5 C 642.844,29.334 648.177,29.5006 653.5,30C 650.052,30.859 646.552,31.359 643,31.5C 640.705,31.4535 638.871,30.7868 637.5,29.5 Z"/></g>
<g><path style="opacity:0.979" fill="#1756e6" d="M 672.5,40.5 C 880.261,36.5344 1054.43,110.201 1195,261.5C 1314.7,398.898 1370.7,559.231 1363,742.5C 1350.43,922.114 1278.93,1073.28 1148.5,1196C 994.405,1331.81 814.739,1387.81 609.5,1364C 422.761,1335.43 273.261,1245.93 161,1095.5C 56.5775,946.791 17.2442,782.124 43,601.5C 73.7428,422.742 160.909,278.909 304.5,170C 414.076,90.4147 536.743,47.2481 672.5,40.5 Z M 675.5,96.5 C 860.637,93.3603 1017.14,158.027 1145,290.5C 1270.74,430.752 1323.41,595.086 1303,783.5C 1281.85,931.659 1216.68,1056.16 1107.5,1157C 968.229,1278.35 806.229,1329.02 621.5,1309C 448.241,1283.52 309.741,1201.02 206,1061.5C 110.031,924.379 74.3645,772.712 99,606.5C 129.042,441.286 211.209,309.12 345.5,210C 444.417,140.415 554.417,102.582 675.5,96.5 Z M 688.5,423.5 C 698.889,423.13 709.223,423.63 719.5,425C 735.173,431.171 742.006,442.671 740,459.5C 738.718,465.113 735.551,469.28 730.5,472C 719.322,476.752 707.655,478.919 695.5,478.5C 673.071,477.825 650.738,475.992 628.5,473C 622.817,472.46 617.65,470.626 613,467.5C 611.239,463.912 611.739,460.579 614.5,457.5C 635.963,439.1 660.63,427.767 688.5,423.5 Z M 878.5,736.5 C 879.568,712.126 886.402,689.459 899,668.5C 911.943,647.559 927.11,628.392 944.5,611C 952.32,605.483 960.32,605.15 968.5,610C 971.36,613.681 972.193,617.848 971,622.5C 969.283,630.599 965.95,637.932 961,644.5C 943.81,666.202 926.144,687.535 908,708.5C 898.6,718.403 888.767,727.736 878.5,736.5 Z"/></g>
<g><path style="opacity:0.602" fill="#1756e6" d="M 919.5,68.5 C 921.288,68.2148 922.955,68.5481 924.5,69.5C 923.667,69.8333 922.833,70.1667 922,70.5C 920.624,70.3158 919.791,69.6491 919.5,68.5 Z"/></g>
<g><path style="opacity:0.989" fill="#1756e6" d="M 677.5,330.5 C 717.601,328.961 756.601,334.795 794.5,348C 804.649,352.572 814.316,357.905 823.5,364C 835.551,375.601 842.718,389.768 845,406.5C 855.759,461.471 837.593,503.971 790.5,534C 768.702,545.95 745.369,552.617 720.5,554C 690.539,556.117 660.872,554.117 631.5,548C 611.569,544.434 591.902,539.767 572.5,534C 564.582,532.186 557.749,534.019 552,539.5C 519.528,589.926 502.528,645.259 501,705.5C 500.333,726.167 500.333,746.833 501,767.5C 499.938,815.205 518.438,853.039 556.5,881C 578.126,894.116 601.626,900.616 627,900.5C 652.907,899.812 678.407,896.312 703.5,890C 714.321,886.837 724.655,882.504 734.5,877C 744.727,869.067 751.893,858.9 756,846.5C 765.907,768.779 790.574,696.112 830,628.5C 854.051,588.784 887.218,559.284 929.5,540C 958.438,527.219 987.771,526.219 1017.5,537C 1040.33,548.823 1051.17,567.657 1050,593.5C 1047.14,624.103 1036.8,651.769 1019,676.5C 999.333,701.167 979.667,725.833 960,750.5C 924.292,785.855 891.958,823.855 863,864.5C 860.711,870.324 859.044,876.324 858,882.5C 855.733,906.019 861.4,927.352 875,946.5C 891.101,962.86 910.267,967.694 932.5,961C 951.402,957.379 968.402,949.712 983.5,938C 996.534,924.634 1009.2,910.967 1021.5,897C 1026.7,891.805 1032.86,888.305 1040,886.5C 1045.95,887.438 1050.61,890.438 1054,895.5C 1056.5,908.445 1055.5,921.112 1051,933.5C 1040.78,955.608 1028.78,976.608 1015,996.5C 984.115,1034.69 943.948,1053.02 894.5,1051.5C 867.154,1051 841.154,1044.83 816.5,1033C 796.128,1020.63 780.628,1003.8 770,982.5C 763.905,977.338 757.072,976.172 749.5,979C 699.05,998.908 646.716,1008.57 592.5,1008C 547.944,1005.89 505.277,995.89 464.5,978C 438.195,963.696 417.028,943.863 401,918.5C 380.092,885.548 368.425,849.548 366,810.5C 361.472,751.172 367.138,692.839 383,635.5C 389.322,610.867 396.655,586.534 405,562.5C 409.866,550.435 415.532,538.769 422,527.5C 429.581,516.672 436.915,505.672 444,494.5C 452.868,477.007 453.868,459.007 447,440.5C 441.721,427.276 435.388,414.609 428,402.5C 422.482,391.097 419.815,379.097 420,366.5C 422.546,351.266 431.38,344.432 446.5,346C 453.811,347.655 460.478,350.655 466.5,355C 478.554,367.054 490.554,379.054 502.5,391C 504.49,392.751 506.823,393.751 509.5,394C 515.893,395.278 522.226,395.278 528.5,394C 538.5,386.667 548.5,379.333 558.5,372C 576.709,362.396 595.042,353.062 613.5,344C 634.365,336.595 655.699,332.095 677.5,330.5 Z M 688.5,423.5 C 660.63,427.767 635.963,439.1 614.5,457.5C 611.739,460.579 611.239,463.912 613,467.5C 617.65,470.626 622.817,472.46 628.5,473C 650.738,475.992 673.071,477.825 695.5,478.5C 707.655,478.919 719.322,476.752 730.5,472C 735.551,469.28 738.718,465.113 740,459.5C 742.006,442.671 735.173,431.171 719.5,425C 709.223,423.63 698.889,423.13 688.5,423.5 Z M 878.5,736.5 C 888.767,727.736 898.6,718.403 908,708.5C 926.144,687.535 943.81,666.202 961,644.5C 965.95,637.932 969.283,630.599 971,622.5C 972.193,617.848 971.36,613.681 968.5,610C 960.32,605.15 952.32,605.483 944.5,611C 927.11,628.392 911.943,647.559 899,668.5C 886.402,689.459 879.568,712.126 878.5,736.5 Z"/></g>
<g><path style="opacity:0.615" fill="#1756e6" d="M 405.5,1333.5 C 412.969,1336.22 412.969,1337.55 405.5,1337.5C 405.5,1336.17 405.5,1334.83 405.5,1333.5 Z"/></g>
<g><path style="opacity:0.52" fill="#1756e6" d="M 462.5,1358.5 C 464.607,1357.53 466.941,1357.2 469.5,1357.5C 469.5,1358.5 469.5,1359.5 469.5,1360.5C 466.812,1360.83 464.479,1360.17 462.5,1358.5 Z"/></g>
</svg>
